<svg xmlns="http://www.w3.org/2000/svg" width="70" height="32.77" viewBox="0 0 70 32.77">
  <defs>
    <style>
      .cls-1 {
        fill: #c74242;
      }

      .cls-2 {
        font-size: 24.01px;
        fill: #534242;
        font-family: BradleyHandITCTT-Bold, Bradley Hand;
        font-weight: 700;
      }
    </style>
  </defs>
  <title>access</title>
  <g id="レイヤー_2" data-name="レイヤー 2">
    <g id="記事">
      <g>
        <path class="cls-1" d="M17.75,28.23c7.57,5.51,17.26,5,26.05,3.66,3.68-.55,8-1.55,9.58-5.4.55-1.36.71-3.24-.44-4.34s-3.21-.81-4.64-.28a9.6,9.6,0,0,0-6.21,8.48c-.05,1.12,1.7,1.12,1.76,0,.16-3.45,3.08-7,6.7-7.21,2.82-.12,1,3.49-.09,4.52-1.57,1.47-3.75,2-5.82,2.34C36,31.49,26.13,32.17,18.56,26.85c-.85-.6-1.63.78-.81,1.38Z"/>
        <text class="cls-2" transform="translate(1.01 18.52)">Access</text>
      </g>
    </g>
  </g>
</svg>
