<svg xmlns="http://www.w3.org/2000/svg" width="27.03" height="61.79" viewBox="0 0 27.03 61.79">
  <defs>
    <style>
      .cls-1 {
        fill: #fff;
      }
    </style>
  </defs>
  <title>down</title>
  <g id="レイヤー_2" data-name="レイヤー 2">
    <g id="記事">
      <g>
        <path class="cls-1" d="M14,.41A27.08,27.08,0,0,0,8.7,9.83a28,28,0,0,0-1,10.84C8,24.1,8.83,28.29,11.26,30.91c3.05,3.28,7.66,1.5,10.66-.87A13.1,13.1,0,0,0,27,21.09c.23-3.28-1.5-6.85-5.08-7.21-3.92-.41-7.1,3.17-8.76,6.33A30,30,0,0,0,10.32,31c-.9,8.08-1.47,17.53,3.6,24.45a2.15,2.15,0,0,0,2.86.75,2.1,2.1,0,0,0,.75-2.85C14,48.45,13.72,42.33,14,36.51c.29-5.39.51-11.91,4.07-16.3,1-1.28,3.72-3.6,4.59-1,.75,2.23-.57,4.78-2,6.41C19.39,27,16,30,14.11,28.07s-2.35-5.16-2.69-7.52A25.76,25.76,0,0,1,16,2C16.92.82,14.89-.76,14,.41Z"/>
        <path class="cls-1" d="M.54,47A111.36,111.36,0,0,0,17.61,61.47a2.13,2.13,0,0,0,3.11-1.26Q22,56.37,23.3,52.55c.88-2.54,1.92-5,2.69-7.62.67-2.23-2.87-3.84-3.84-1.62a164.55,164.55,0,0,0-5.51,15.78l3.1-1.27A123.61,123.61,0,0,1,3.21,44.32,1.89,1.89,0,0,0,.54,47Z"/>
      </g>
    </g>
  </g>
</svg>
