<svg xmlns="http://www.w3.org/2000/svg" width="120" height="30.66" viewBox="0 0 120 30.66">
  <defs>
    <style>
      .cls-1 {
        fill: #c74242;
      }

      .cls-2 {
        font-size: 21.72px;
        fill: #534242;
        font-family: BradleyHandITCTT-Bold, Bradley Hand;
        font-weight: 700;
      }
    </style>
  </defs>
  <title>introduction</title>
  <g id="レイヤー_2" data-name="レイヤー 2">
    <g id="記事">
      <g>
        <path class="cls-1" d="M42.88,26.55c6.85,5,15.59,4.52,23.55,3.32,3.32-.5,7.19-1.38,8.65-4.81.52-1.23.7-3-.35-4s-2.89-.75-4.19-.27a8.69,8.69,0,0,0-5.64,7.67c-.05,1,1.54,1,1.59,0,.15-3.15,2.82-6.39,6.13-6.52,1.34-.05,1.44,1.27,1.1,2.26a5,5,0,0,1-1.85,2.33,11.73,11.73,0,0,1-5,1.67c-7.78,1.27-16.48,1.86-23.27-2.9-.76-.54-1.47.71-.72,1.24Z"/>
        <text class="cls-2" transform="translate(0 16.76)">Introduction</text>
      </g>
    </g>
  </g>
</svg>
