<svg xmlns="http://www.w3.org/2000/svg" width="148.01" height="46.1" viewBox="0 0 148.01 46.1">
  <defs>
    <style>
      .cls-1 {
        fill: #fff;
      }

      .cls-2 {
        fill: none;
        stroke: #fff;
        stroke-miterlimit: 10;
        stroke-width: 2.2px;
      }
    </style>
  </defs>
  <title>rogo</title>
  <g id="レイヤー_2" data-name="レイヤー 2">
    <g id="レイヤー_7" data-name="レイヤー 7">
      <g>
        <path class="cls-1" d="M15.2,4.08H10.69V19a2.76,2.76,0,0,1-.57,1.91,1.89,1.89,0,0,1-1.47.62,1.92,1.92,0,0,1-1.49-.63A2.77,2.77,0,0,1,6.58,19V4.08H2.09A2.35,2.35,0,0,1,.51,3.61,1.61,1.61,0,0,1,0,2.37,1.58,1.58,0,0,1,.54,1.11,2.26,2.26,0,0,1,2.09.65H15.2a2.29,2.29,0,0,1,1.59.47,1.59,1.59,0,0,1,.52,1.25,1.58,1.58,0,0,1-.52,1.24A2.34,2.34,0,0,1,15.2,4.08Z"/>
        <path class="cls-1" d="M45.63,12.32V16.2a4.23,4.23,0,0,1-.15,1.23,2.07,2.07,0,0,1-.56.84,5.34,5.34,0,0,1-1.05.7,16.27,16.27,0,0,1-3.54,1.45,14.5,14.5,0,0,1-3.71.45,12.27,12.27,0,0,1-4.25-.7,9,9,0,0,1-3.28-2.08A9.13,9.13,0,0,1,27,14.78a12.1,12.1,0,0,1-.72-4.34A12.61,12.61,0,0,1,27,6.13,8.92,8.92,0,0,1,29,2.8,9.11,9.11,0,0,1,32.38.71,12.75,12.75,0,0,1,36.84,0a10.92,10.92,0,0,1,3.63.55A7.82,7.82,0,0,1,43,1.92a6.25,6.25,0,0,1,1.48,1.76A3.58,3.58,0,0,1,45,5.27a1.79,1.79,0,0,1-.58,1.31,2,2,0,0,1-1.38.56,1.81,1.81,0,0,1-.85-.21,1.91,1.91,0,0,1-.69-.57,16.37,16.37,0,0,0-1.29-1.8,4.22,4.22,0,0,0-1.42-1,5.49,5.49,0,0,0-2.27-.39A6.15,6.15,0,0,0,34,3.64a5.15,5.15,0,0,0-1.92,1.41,6.37,6.37,0,0,0-1.22,2.28,10.05,10.05,0,0,0-.42,3,8.15,8.15,0,0,0,1.64,5.46,5.67,5.67,0,0,0,4.57,1.92,9.67,9.67,0,0,0,2.68-.35,13.49,13.49,0,0,0,2.54-1.06V13H38.67a3.49,3.49,0,0,1-1.74-.35,1.23,1.23,0,0,1-.58-1.17,1.44,1.44,0,0,1,.49-1.12,1.9,1.9,0,0,1,1.33-.44h4.67a6,6,0,0,1,1.46.15,1.65,1.65,0,0,1,1,.68A2.76,2.76,0,0,1,45.63,12.32Z"/>
        <path class="cls-2" d="M3.92,29.3s13.9,32.06,35.44,4.55"/>
        <path class="cls-2" d="M39.19,34.52s6.42-1.11,7.32-4.14-1.29-6.27-1.29-6.27-1.84-3.21-4.11-.27a18.09,18.09,0,0,0-2.9,7.35l-.14,2.06Z"/>
        <path class="cls-1" d="M68.24,5.06H64.92v10.3a1.79,1.79,0,0,1-.41,1.32,1.6,1.6,0,0,1-2.18,0,1.87,1.87,0,0,1-.4-1.32V5.06H58.62a1.7,1.7,0,0,1-1.14-.33,1,1,0,0,1-.38-.86A1.06,1.06,0,0,1,57.49,3a1.74,1.74,0,0,1,1.13-.32h9.62A1.79,1.79,0,0,1,69.41,3a1.1,1.1,0,0,1,.38.86,1,1,0,0,1-.38.86A1.8,1.8,0,0,1,68.24,5.06Z"/>
        <path class="cls-1" d="M77.53,15.06a7.86,7.86,0,0,1-1.8,1.09,4.9,4.9,0,0,1-1.93.36,3.71,3.71,0,0,1-1.73-.39,2.86,2.86,0,0,1-1.15-1.06,2.69,2.69,0,0,1-.39-1.44,2.57,2.57,0,0,1,.66-1.79,3.28,3.28,0,0,1,1.83-1l1.19-.26c.64-.13,1.2-.25,1.66-.36l1.49-.39A2.7,2.7,0,0,0,77,8.34a1.85,1.85,0,0,0-1.49-.47A3.11,3.11,0,0,0,74,8.14a2.5,2.5,0,0,0-.84.81,7,7,0,0,1-.49.72.78.78,0,0,1-.6.17,1,1,0,0,1-.85-.39,1.11,1.11,0,0,1-.2-.71,2.22,2.22,0,0,1,.47-1.19A3.42,3.42,0,0,1,73,6.5a6.93,6.93,0,0,1,2.51-.41,7.24,7.24,0,0,1,2.65.4,2.47,2.47,0,0,1,1.36,1.26,5.39,5.39,0,0,1,.4,2.28V13a4.8,4.8,0,0,0,.24,1.5,5.61,5.61,0,0,1,.24,1,1,1,0,0,1-.37.72,1.25,1.25,0,0,1-.84.33,1.12,1.12,0,0,1-.78-.38A5.49,5.49,0,0,1,77.53,15.06Zm-.63-3.69a13.55,13.55,0,0,1-1.63.44l-1.49.33a2,2,0,0,0-.78.42,1.09,1.09,0,0,0-.38.88,1.3,1.3,0,0,0,.44,1,1.63,1.63,0,0,0,1.15.41,3,3,0,0,0,1.4-.33,2.22,2.22,0,0,0,.94-.88,4,4,0,0,0,.35-1.91Z"/>
        <path class="cls-1" d="M88.1,15,86,11.5l-1.31,1.24v1.91a1.42,1.42,0,0,1-.36,1.06,1.14,1.14,0,0,1-.85.38,1.08,1.08,0,0,1-.87-.37,1.72,1.72,0,0,1-.32-1.1V4.36a2.16,2.16,0,0,1,.31-1.22,1.06,1.06,0,0,1,.88-.42,1.16,1.16,0,0,1,.89.38,1.66,1.66,0,0,1,.32,1.12v5.83l2.7-2.82a7.46,7.46,0,0,1,.77-.72,1.13,1.13,0,0,1,1.39.09.94.94,0,0,1,.3.72c0,.35-.33.82-1,1.41L87.59,9.9,90,13.77q.27.44.39.66a1.06,1.06,0,0,1,.12.43,1.24,1.24,0,0,1-.31.9,1.1,1.1,0,0,1-.82.33.93.93,0,0,1-.69-.24A6.79,6.79,0,0,1,88.1,15Z"/>
        <path class="cls-1" d="M100.32,11.64h-5a3.45,3.45,0,0,0,.36,1.54,2.34,2.34,0,0,0,2.13,1.34,2.94,2.94,0,0,0,.84-.11,2.89,2.89,0,0,0,.74-.33,7.89,7.89,0,0,0,.65-.49l.78-.72a.88.88,0,0,1,.59-.15.94.94,0,0,1,.64.22.76.76,0,0,1,.23.64,1.61,1.61,0,0,1-.26.77,3.32,3.32,0,0,1-.82.89,4.83,4.83,0,0,1-1.37.71,6.18,6.18,0,0,1-1.91.28,5.11,5.11,0,0,1-3.82-1.41A5.17,5.17,0,0,1,92.73,11a6,6,0,0,1,.34-2.1,4.55,4.55,0,0,1,1-1.67,4.2,4.2,0,0,1,1.59-1.06,5.69,5.69,0,0,1,2.09-.37,5,5,0,0,1,2.57.64,4,4,0,0,1,1.6,1.63,4.26,4.26,0,0,1,.54,2c0,.64-.18,1.06-.56,1.25A3.59,3.59,0,0,1,100.32,11.64Zm-5-1.2H100a3.15,3.15,0,0,0-.71-1.95,2.14,2.14,0,0,0-1.62-.66,2.09,2.09,0,0,0-1.56.66A3.32,3.32,0,0,0,95.32,10.44Z"/>
        <path class="cls-1" d="M112.78,13.17a3,3,0,0,1-2,3,6.75,6.75,0,0,1-2.44.39,6.16,6.16,0,0,1-2.36-.42A3.52,3.52,0,0,1,104.49,15a2.14,2.14,0,0,1-.46-1.26.92.92,0,0,1,.3-.72,1,1,0,0,1,.75-.3.87.87,0,0,1,.6.2,1.72,1.72,0,0,1,.41.55,2.45,2.45,0,0,0,2.5,1.35,2.18,2.18,0,0,0,1.26-.34,1,1,0,0,0,.49-.78,1,1,0,0,0-.51-1,6.24,6.24,0,0,0-1.68-.6,13.79,13.79,0,0,1-2.15-.69,3.63,3.63,0,0,1-1.32-.94,2.26,2.26,0,0,1-.5-1.45,2.71,2.71,0,0,1,.46-1.46A3.16,3.16,0,0,1,106,6.52a5.11,5.11,0,0,1,2.15-.4,7.26,7.26,0,0,1,1.8.2,4.65,4.65,0,0,1,1.32.56,2.75,2.75,0,0,1,.76.76,1.51,1.51,0,0,1,.27.82,1,1,0,0,1-.29.72,1.19,1.19,0,0,1-.84.28.94.94,0,0,1-.66-.23,4.06,4.06,0,0,1-.64-.67,2.45,2.45,0,0,0-.68-.6,2.19,2.19,0,0,0-1.07-.22A2,2,0,0,0,107,8a.86.86,0,0,0-.46.73.79.79,0,0,0,.34.66,2.7,2.7,0,0,0,.91.42c.37.11.9.25,1.57.41a9,9,0,0,1,1.94.7,3.25,3.25,0,0,1,1.14.94A2.22,2.22,0,0,1,112.78,13.17Z"/>
        <path class="cls-1" d="M117.6,3.83V7.66a6,6,0,0,1,1.13-1,3.17,3.17,0,0,1,.41-.21,4.23,4.23,0,0,1,1.65-.33,3.49,3.49,0,0,1,1.73.42,3,3,0,0,1,1.21,1.2,2.88,2.88,0,0,1,.36,1,8.17,8.17,0,0,1,.1,1.31V15a1.59,1.59,0,0,1-.33,1.09,1.14,1.14,0,0,1-.88.37c-.79,0-1.19-.49-1.19-1.46V10.67a4.1,4.1,0,0,0-.38-2A1.51,1.51,0,0,0,120,8a2.14,2.14,0,0,0-1.29.4,2.52,2.52,0,0,0-.85,1.11,7.22,7.22,0,0,0-.22,2.12V15a1.55,1.55,0,0,1-.32,1.08,1.14,1.14,0,0,1-.89.38c-.79,0-1.18-.49-1.18-1.46V3.82a1.67,1.67,0,0,1,.31-1.1,1.12,1.12,0,0,1,.88-.36,1.1,1.1,0,0,1,.89.37A1.56,1.56,0,0,1,117.6,3.83Z"/>
        <path class="cls-1" d="M127.82,4.94a1.36,1.36,0,0,1-.91-.33,1.17,1.17,0,0,1-.38-.93,1.12,1.12,0,0,1,.39-.89,1.29,1.29,0,0,1,.9-.35,1.36,1.36,0,0,1,.88.32,1.11,1.11,0,0,1,.38.92,1.2,1.2,0,0,1-.37.93A1.33,1.33,0,0,1,127.82,4.94ZM129,7.8v6.93a1.56,1.56,0,0,1-.35,1.09,1.12,1.12,0,0,1-.86.37,1.1,1.1,0,0,1-.86-.38,1.61,1.61,0,0,1-.33-1.08V7.86a1.54,1.54,0,0,1,.33-1.07,1.21,1.21,0,0,1,1.72,0,1.39,1.39,0,0,1,.35,1Z"/>
        <path class="cls-1" d="M131.73,6.25H132V4.75c0-.39,0-.7,0-1a1.69,1.69,0,0,1,.17-.58,1.15,1.15,0,0,1,.41-.41,1.17,1.17,0,0,1,.57-.16A1.15,1.15,0,0,1,134,3a1,1,0,0,1,.32.58,5.21,5.21,0,0,1,.06,1V6.25h.89a1.11,1.11,0,0,1,.78.25.88.88,0,0,1,.28.65.75.75,0,0,1-.39.7,2.45,2.45,0,0,1-1.1.2h-.46v4.58c0,.3,0,.6,0,.9a1,1,0,0,0,.21.51.72.72,0,0,0,.57.2,3.6,3.6,0,0,0,.56-.08,3.43,3.43,0,0,1,.56-.08.73.73,0,0,1,.53.24.86.86,0,0,1,.23.59,1,1,0,0,1-.63.92,4.22,4.22,0,0,1-1.82.32,3.1,3.1,0,0,1-1.69-.39,1.83,1.83,0,0,1-.77-1.09,8.12,8.12,0,0,1-.18-1.85V8.05h-.32a1.07,1.07,0,0,1-.78-.26.8.8,0,0,1-.28-.64.81.81,0,0,1,.29-.65A1.28,1.28,0,0,1,131.73,6.25Z"/>
        <path class="cls-1" d="M145.21,15.06a8,8,0,0,1-1.79,1.09,5.17,5.17,0,0,1-1.94.36,3.69,3.69,0,0,1-1.73-.39,2.8,2.8,0,0,1-1.15-1.06,2.75,2.75,0,0,1-.4-1.43,2.55,2.55,0,0,1,.67-1.8,3.36,3.36,0,0,1,1.79-1l1.2-.25c.6-.13,1.2-.25,1.65-.36s1-.24,1.49-.4a2.66,2.66,0,0,0-.4-1.48,1.8,1.8,0,0,0-1.5-.47,3,3,0,0,0-1.46.27,2.41,2.41,0,0,0-.84.81c-.24.36-.4.6-.5.72a.85.85,0,0,1-.6.17,1.08,1.08,0,0,1-.9-.45,1.33,1.33,0,0,1-.15-.68,2.21,2.21,0,0,1,.47-1.16,3.47,3.47,0,0,1,1.49-1,6.54,6.54,0,0,1,2.52-.41,7,7,0,0,1,2.64.4,2.4,2.4,0,0,1,1.36,1.26,5.39,5.39,0,0,1,.4,2.28V13a5.34,5.34,0,0,0,.24,1.49,4.5,4.5,0,0,1,.24,1,.9.9,0,0,1-.37.72,1.11,1.11,0,0,1-1.61-.05A5.73,5.73,0,0,1,145.21,15.06Zm-.42-3.69a13.22,13.22,0,0,1-1.64.44l-1.47.33a2,2,0,0,0-.79.42,1.09,1.09,0,0,0-.38.88,1.32,1.32,0,0,0,.44,1,1.65,1.65,0,0,0,1.16.4,3,3,0,0,0,1.4-.33,2.23,2.23,0,0,0,.94-.86,3.79,3.79,0,0,0,.35-1.91Z"/>
        <path class="cls-1" d="M73.9,38v2.62a1.7,1.7,0,0,1-.05.84,1.31,1.31,0,0,1-.38.6,3.82,3.82,0,0,1-.7.49,10.91,10.91,0,0,1-2.4,1,9.64,9.64,0,0,1-2.51.3A8,8,0,0,1,65,43.37,6.13,6.13,0,0,1,62.76,42a6.27,6.27,0,0,1-1.4-2.25,8.18,8.18,0,0,1-.49-2.94,8.58,8.58,0,0,1,.48-2.93A5.84,5.84,0,0,1,65,30.17a8.51,8.51,0,0,1,3-.49,7.48,7.48,0,0,1,2.44.36,5.39,5.39,0,0,1,1.73.94,4.27,4.27,0,0,1,1,1.19,2.57,2.57,0,0,1,.34,1.12,1.2,1.2,0,0,1-.39.89,1.31,1.31,0,0,1-.94.37,1.26,1.26,0,0,1-.6-.14,1.43,1.43,0,0,1-.46-.39,11.37,11.37,0,0,0-.86-1.2,3,3,0,0,0-1-.69,3.69,3.69,0,0,0-1.54-.28,4.3,4.3,0,0,0-1.73.33,3.7,3.7,0,0,0-1.29,1,4.29,4.29,0,0,0-.82,1.55,6.69,6.69,0,0,0-.29,2,5.55,5.55,0,0,0,1.11,3.71,3.79,3.79,0,0,0,3.13,1.24,6.11,6.11,0,0,0,1.8-.25,15,15,0,0,0,1.83-.72V38.58H69.26a4.13,4.13,0,0,1-1.2-.34.83.83,0,0,1-.4-.79,1,1,0,0,1,.34-.76.55.55,0,0,1,.89.09h3.18a.85.85,0,0,1,1-.29,1.15,1.15,0,0,1,.66.46A1.53,1.53,0,0,1,73.9,38Z"/>
        <path class="cls-1" d="M86,38.63a6.07,6.07,0,0,1-.35,2.11,4.79,4.79,0,0,1-1,1.65A4.68,4.68,0,0,1,83,43.46a5.86,5.86,0,0,1-2.11.36,5.28,5.28,0,0,1-2.08-.37,4.53,4.53,0,0,1-2.63-2.72,6.22,6.22,0,0,1-.36-2.1,6.38,6.38,0,0,1,.36-2.12,4.67,4.67,0,0,1,1-1.64,4.47,4.47,0,0,1,1.61-1.06,5.88,5.88,0,0,1,2.08-.37,5.63,5.63,0,0,1,2.11.38,4.49,4.49,0,0,1,1.62,1.07,4.58,4.58,0,0,1,1,1.64A6.05,6.05,0,0,1,86,38.63Zm-2.56-.05a3.82,3.82,0,0,0-.69-2.43,2.23,2.23,0,0,0-1.85-.87,2.29,2.29,0,0,0-1.31.39,2.42,2.42,0,0,0-.88,1.14,5.19,5.19,0,0,0,0,3.52,2.48,2.48,0,0,0,.87,1.15,2.25,2.25,0,0,0,1.33.39A2.2,2.2,0,0,0,82.73,41a3.82,3.82,0,0,0,.72-2.42Z"/>
        <path class="cls-1" d="M94.86,42.38v-.33a5.75,5.75,0,0,1-1,1,3.45,3.45,0,0,1-1.08.59,4.39,4.39,0,0,1-1.34.19,3.47,3.47,0,0,1-1.64-.38,2.76,2.76,0,0,1-1.11-1.06,4.58,4.58,0,0,1-.47-2.3V34.91a1.56,1.56,0,0,1,.33-1.08,1.1,1.1,0,0,1,.86-.35,1.07,1.07,0,0,1,.87.36,1.43,1.43,0,0,1,.33,1.07V39a7.66,7.66,0,0,0,.17,1.59,1.91,1.91,0,0,0,.57,1,1.62,1.62,0,0,0,1.1.36,2.37,2.37,0,0,0,2.13-1.46A8.46,8.46,0,0,0,94.86,38V34.91a1.52,1.52,0,0,1,.33-1.07,1.11,1.11,0,0,1,.87-.36,1.07,1.07,0,0,1,.86.35,1.56,1.56,0,0,1,.33,1.08v7.44a1.6,1.6,0,0,1-.33,1.1,1.2,1.2,0,0,1-1.7,0l0,0A1.52,1.52,0,0,1,94.86,42.38Z"/>
        <path class="cls-1" d="M102,40.05v2a1.61,1.61,0,0,1-.34,1.1,1.18,1.18,0,0,1-.87.35,1.08,1.08,0,0,1-.85-.36A1.6,1.6,0,0,1,99.64,42V35.39c0-1.08.39-1.61,1.17-1.61a1,1,0,0,1,.86.37,2.11,2.11,0,0,1,.29,1.12,4.15,4.15,0,0,1,.88-1.12,1.79,1.79,0,0,1,1.2-.37,3.07,3.07,0,0,1,1.46.37,1.13,1.13,0,0,1,.72,1,1,1,0,0,1-.31.72.93.93,0,0,1-.65.29,3.53,3.53,0,0,1-.64-.16,2.92,2.92,0,0,0-.88-.17,1.33,1.33,0,0,0-.86.28,1.7,1.7,0,0,0-.52.82,5.66,5.66,0,0,0-.25,1.29C102.06,38.72,102,39.32,102,40.05Z"/>
        <path class="cls-1" d="M116.41,39v3.32a1.64,1.64,0,0,1-.33,1.09,1.14,1.14,0,0,1-.88.37,1.12,1.12,0,0,1-.86-.37,1.59,1.59,0,0,1-.33-1.09V38.23a11.86,11.86,0,0,0-.07-1.58,1.74,1.74,0,0,0-.39-.95,1.21,1.21,0,0,0-1-.36,1.72,1.72,0,0,0-1.74.91,6.43,6.43,0,0,0-.42,2.6v3.43a1.61,1.61,0,0,1-.33,1.1,1.2,1.2,0,0,1-1.73,0,1.61,1.61,0,0,1-.34-1.1V34.9a1.57,1.57,0,0,1,.33-1.07,1.1,1.1,0,0,1,.86-.38,1.21,1.21,0,0,1,.86.35,1.29,1.29,0,0,1,.35,1V35a4.28,4.28,0,0,1,1.39-1.15,3.83,3.83,0,0,1,1.66-.37,3.4,3.4,0,0,1,1.63.38A3,3,0,0,1,116.22,35a4.44,4.44,0,0,1,1.36-1.15,3.59,3.59,0,0,1,1.61-.37,3.77,3.77,0,0,1,1.77.41,2.49,2.49,0,0,1,1.11,1.18,5.36,5.36,0,0,1,.32,2.14v5.09a1.59,1.59,0,0,1-.33,1.09,1.13,1.13,0,0,1-.87.36,1.07,1.07,0,0,1-.86-.37,1.56,1.56,0,0,1-.33-1.08V38a11.58,11.58,0,0,0-.08-1.44,1.66,1.66,0,0,0-.41-.9,1.35,1.35,0,0,0-1-.37,2,2,0,0,0-1,.33,2.2,2.2,0,0,0-.76.87A6.7,6.7,0,0,0,116.41,39Z"/>
        <path class="cls-1" d="M132,39.18h-5a3.41,3.41,0,0,0,.36,1.53,2.34,2.34,0,0,0,2.15,1.34,3,3,0,0,0,.84-.11,2.43,2.43,0,0,0,.73-.34,5.12,5.12,0,0,0,.66-.49l.78-.7a.74.74,0,0,1,.55-.17,1,1,0,0,1,.53.16.85.85,0,0,1,.32.87,1.64,1.64,0,0,1-.25.61,3.2,3.2,0,0,1-.82.9,5.07,5.07,0,0,1-1.37.7,5.9,5.9,0,0,1-1.91.28,5.14,5.14,0,0,1-3.82-1.4,5.25,5.25,0,0,1-1.37-3.81,6.25,6.25,0,0,1,.34-2.1,4.65,4.65,0,0,1,1-1.66,4.36,4.36,0,0,1,1.59-1.06,5.77,5.77,0,0,1,2.1-.37A4.86,4.86,0,0,1,132,34a4.14,4.14,0,0,1,1.61,1.63,4.31,4.31,0,0,1,.53,2c0,.64-.18,1.06-.55,1.25A3.39,3.39,0,0,1,132,39.18ZM127,38h4.64a3.18,3.18,0,0,0-.71-2,2.13,2.13,0,0,0-1.62-.65,2,2,0,0,0-1.56.66A3.26,3.26,0,0,0,127,38Z"/>
        <path class="cls-1" d="M136.49,33.79h.27V32.28a8.18,8.18,0,0,1,0-.94,1.34,1.34,0,0,1,.17-.59,1.15,1.15,0,0,1,.41-.41,1,1,0,0,1,.57-.16,1.18,1.18,0,0,1,.83.35,1,1,0,0,1,.32.59,5.21,5.21,0,0,1,.06,1v1.7H140a1.12,1.12,0,0,1,.79.25.83.83,0,0,1,.27.65.72.72,0,0,1-.39.7,2.45,2.45,0,0,1-1.1.2h-.46v4.62c0,.3,0,.6,0,.9a.94.94,0,0,0,.22.51.7.7,0,0,0,.56.2,3.72,3.72,0,0,0,.57-.08,3.43,3.43,0,0,1,.56-.08.7.7,0,0,1,.53.25.82.82,0,0,1,.23.58,1,1,0,0,1-.63.93,4.27,4.27,0,0,1-1.83.32,3.16,3.16,0,0,1-1.7-.39,1.81,1.81,0,0,1-.76-1.1,7.73,7.73,0,0,1-.18-1.86v-4.8h-.32a1.1,1.1,0,0,1-.79-.26.83.83,0,0,1-.27-.65.77.77,0,0,1,.28-.64A1.24,1.24,0,0,1,136.49,33.79Z"/>
        <path class="cls-1" d="M98.1,29.61l-1.7-1.7,2.81-2.82-2.83-2.85,1.74-1.72L101,23.36l2.85-2.84,1.68,1.7-2.81,2.84,2.83,2.83-1.7,1.74-2.89-2.84Z"/>
      </g>
    </g>
  </g>
</svg>
