<svg xmlns="http://www.w3.org/2000/svg" width="257.74" height="73.51" viewBox="0 0 257.74 73.51">
  <defs>
    <style>
      .cls-1 {
        font-size: 60px;
        font-family: BradleyHandITCTT-Bold, Bradley Hand;
        font-weight: 700;
      }

      .cls-1, .cls-2 {
        fill: #534242;
      }
    </style>
  </defs>
  <title>sweets_top</title>
  <g id="レイヤー_2" data-name="レイヤー 2">
    <g id="記事">
      <g>
        <text class="cls-1" transform="translate(39.56 49.57)">Sweets</text>
        <g>
          <path class="cls-2" d="M237.18,32.94a54.06,54.06,0,0,1-5.07-24c0-1.89,0-4.1,1.08-5.74,1.37-2.08,3.62-1.75,5.25-.18,2.63,2.53,3.25,6.49,3.82,9.92a.86.86,0,0,0,1.65,0c.65-3.77,3.3-7.8,7.59-7.41a4.72,4.72,0,0,1,4.36,3.5,8.4,8.4,0,0,1-1.31,6.11C252.5,18.63,249,21,246,23.5a60.15,60.15,0,0,0-10,9.82c-.55.73.63,1.59,1.25,1A123.89,123.89,0,0,1,247,24.86c2.88-2.35,6-4.55,8.19-7.58,2-2.77,3.46-6.71,1.82-10-1.41-2.85-4.92-3.93-7.88-3.23-3.89.91-6.24,4.76-6.88,8.47h1.65c-.54-3.22-1.16-6.63-3.12-9.34C239.09.83,236-1.13,233.25.75s-2.86,6-2.87,9.12a55,55,0,0,0,1.24,11.58,55.89,55.89,0,0,0,4.27,12.24c.42.86,1.7.11,1.29-.75Z"/>
          <path class="cls-2" d="M238.11,30.87a45.89,45.89,0,0,1-4.31-20.1c0-1.59,0-3.44.79-4.86,1.1-1.9,3.11-1.79,4.59-.36,2.22,2.15,2.74,5.49,3.23,8.4a.73.73,0,0,0,1.4,0c.58-3.29,3-6.82,6.75-6.24,4.37.66,3.91,5.56,2.05,8.45s-4.8,4.86-7.4,7a50,50,0,0,0-8.09,8c-.47.61.53,1.34,1,.81a105.07,105.07,0,0,1,8.25-8c2.47-2,5.13-3.92,7-6.54,1.71-2.37,2.87-5.75,1.4-8.51-1.23-2.32-4.12-3.18-6.57-2.63-3.32.75-5.32,4-5.87,7.19h1.4c-.57-3.4-1.31-7.32-4.21-9.56s-6.32-.2-7,3.21c-.75,3.92-.24,8.34.44,12.24a46.75,46.75,0,0,0,4,12.06c.34.73,1.43.09,1.09-.64Z"/>
          <path class="cls-2" d="M244.52,44.38a20.75,20.75,0,0,1-1-5.74,16.42,16.42,0,0,1,.13-2.8c.1-.65.35-1.55,1.15-1.51L244,33.7a43.64,43.64,0,0,1,.53,5.1c0,.91,1.49,1.22,1.68.22a3.68,3.68,0,0,1,2.12-2.69,4.94,4.94,0,0,1,1.78-.3h.09c.14.05.14,0,0-.14a2.18,2.18,0,0,0-.09.23,3.69,3.69,0,0,1-.74.84l-7.81,7.85A.86.86,0,0,0,242.8,46l5-5.06,2.52-2.54c.67-.68,1.54-1.42,1.58-2.45.09-2.17-3-1.79-4.21-1.24a5.35,5.35,0,0,0-3.16,3.83l1.68.23a49.19,49.19,0,0,0-.59-5.56.86.86,0,0,0-.83-.62c-2.61-.12-2.91,3-3,4.9A21.16,21.16,0,0,0,243,44.8c.32,1,1.86.56,1.54-.42Z"/>
        </g>
        <g>
          <path class="cls-2" d="M26.09,36.4a55.26,55.26,0,0,0,1-23c-.54-3.16-1.06-7.27-3.9-9.26S17.57,3.77,16,6.3c-2,3.25-2,7.29-1.87,11l1.69-.23c-1.22-3.19-3.66-6.2-7.14-7a7.36,7.36,0,0,0-7.9,3.25C-1.07,16.64.7,20.59,3,23.14s5.77,4.37,9,6c2.22,1.15,4.39,2.36,6.5,3.7s4.27,3,6.42,4.45c.74.51,1.63-.64,1-1.24a59.53,59.53,0,0,0-11.69-7.7C10.75,26.56,7,24.93,4.35,22.06a8.82,8.82,0,0,1-2.63-5.59,4.67,4.67,0,0,1,3.35-4.53c4.11-1.4,7.69,2,9.07,5.57.33.84,1.72.8,1.69-.23-.1-3.49-.25-7.45,1.85-10.45,1.21-1.72,3.2-2.53,4.94-1,1.54,1.34,1.95,3.63,2.37,5.52A54.06,54.06,0,0,1,24.65,36a.75.75,0,0,0,1.44.4Z"/>
          <path class="cls-2" d="M24.56,34.48a46.91,46.91,0,0,0,1.53-13.13,46.61,46.61,0,0,0-.63-6.24A21.48,21.48,0,0,0,24,9.42c-1.41-3-4.89-4.09-7.25-1.44s-2.42,6.83-2.32,10.3l1.42-.19c-1-2.72-3.11-5.29-6.09-5.92A6.23,6.23,0,0,0,3.08,15c-1.46,2.71-.12,5.9,1.73,8,2.07,2.41,5,3.88,7.76,5.32a106.13,106.13,0,0,1,11,6.93c.62.43,1.38-.55.81-1.06a50.18,50.18,0,0,0-9.51-6.31C12,26.33,8.8,25,6.45,22.65s-4.07-7.18.08-8.81c3.54-1.4,6.71,1.51,7.91,4.64.28.71,1.45.68,1.43-.2-.09-3-.21-6.31,1.57-8.85,1.07-1.52,2.85-2.15,4.32-.73,1.18,1.15,1.52,3,1.86,4.5a45.86,45.86,0,0,1-.28,20.94c-.19.79,1,1.13,1.22.34Z"/>
          <path class="cls-2" d="M21.27,48.66A21.59,21.59,0,0,0,21,41.4c-.42-1.91-1.34-4.92-3.93-4.27a.88.88,0,0,0-.63.83,49.12,49.12,0,0,0,.51,5.55l1.65-.45a5.4,5.4,0,0,0-6.4-3.24,1.76,1.76,0,0,0-1.44,1.53,2.44,2.44,0,0,0,1.11,1.88c1.47,1.11,3.07,2.08,4.59,3.11l5.3,3.58c.92.62,1.78-.87.86-1.49l-9.2-6.21a3.79,3.79,0,0,1-.83-.65c-.09-.11-.08-.25-.14-.08s.24,0,.35-.06a3.29,3.29,0,0,1,1.59,0,3.61,3.61,0,0,1,2.56,2.07.86.86,0,0,0,1.65-.45,46,46,0,0,1-.45-5.1l-.63.82c.75-.19,1.18.74,1.37,1.3a17.74,17.74,0,0,1,.68,2.79,20.42,20.42,0,0,1,.13,5.79.81.81,0,0,0,.8.8.83.83,0,0,0,.8-.8Z"/>
        </g>
      </g>
    </g>
  </g>
</svg>
