<svg xmlns="http://www.w3.org/2000/svg" width="878.16" height="321.84" viewBox="0 0 878.16 321.84">
  <defs>
    <style>
      .cls-1 {
        fill: #55fbff;
      }

      .cls-2 {
        fill: #fff;
      }
    </style>
  </defs>
  <title>welcome</title>
  <g id="レイヤー_2" data-name="レイヤー 2">
    <g id="要素">
      <g>
        <path class="cls-1" d="M146.68,321.45c82.33-24.59,165.32-47,249.54-64.13a2230.51,2230.51,0,0,1,254.26-36.75q36.13-3.12,72.37-5,17.64-.95,35.29-1.61c12.58-.47,25.26-.13,37.65-2.42,8.25-1.52,8.61-15.84,0-17-11-1.51-21.81-.88-32.88-.49q-16.21.59-32.43,1.41-32.41,1.63-64.78,4.22-65.09,5.17-129.78,14.13a2196.75,2196.75,0,0,0-253.69,49.94c-47.19,12.26-93.82,26.15-139.77,42.48-9.49,3.37-5.68,18.25,4.22,15.29Z"/>
        <path class="cls-1" d="M115.54,200.81c82.93-23.48,166.48-44.7,251.2-60.68a2228.44,2228.44,0,0,1,253.62-32.89q36.28-2.59,72.65-4,18.18-.72,36.36-1.13c12.32-.28,24.65.16,36.81-1.9,8.37-1.41,8.5-15.73,0-17-11-1.67-21.88-1.16-33-.92q-16.28.36-32.54.94-32.53,1.19-65,3.3Q571.16,90.71,507,98.63a2221.1,2221.1,0,0,0-255.83,46.55c-47.17,11.55-93.82,24.73-139.81,40.33-9.58,3.25-5.71,18.1,4.21,15.3Z"/>
        <path class="cls-2" d="M212.34,92.07q2.57,16.79-.3,37.43-4.12,28.49-18.11,30.63-10.11,1.55-16.48-8-4.35-6.26-8.19-20.25-4.14-14.81-5.48-17.34-.28,1.77-3.47,26.51Q157,168.39,147,169.9a16,16,0,0,1-10.91-2.37q-8.28-4.93-16.91-36.66A418.64,418.64,0,0,1,110,86.67q-1.31-8.6,7.15-9.9a20.63,20.63,0,0,1,7.83.68l.58,3.81a6.11,6.11,0,0,0-3.52,2.2c-.55.9-.78,2.5-.68,4.79a60.44,60.44,0,0,0,1,6.63l1,5.33a264.27,264.27,0,0,0,7.79,34.89q7.47,25.41,14.28,24.37,3.49-.54,6.45-12a86.3,86.3,0,0,0,2.86-14.58q2.87-25.54.41-41.63c-.1-.65.57-1.58,2-2.76a8.34,8.34,0,0,1,3.47-2,14.27,14.27,0,0,1,7.79,1Q172.34,89.25,173,92q-2.69,4.6-1.32,13.48a168.74,168.74,0,0,0,6.64,27.41q6.84,20,14,18.93,9.94-1.52,12.19-27.41,1.64-18.87-.48-32.69-1.19-7.76-3.72-12-1.92-2.75-3.87-5.62a15.2,15.2,0,0,1-2.75-5.64q-1.14-7.47,3.83-8.23,5.14-.8,10.09,13A105.75,105.75,0,0,1,212.34,92.07Z"/>
        <path class="cls-2" d="M284.2,133.32q.94,6.21-9.16,12.8a44.3,44.3,0,0,1-17.71,7.33q-24.66,3.78-28.33-20.2-1.62-10.57,1.49-23.46Q234.71,93,245,91.4q8.84-1.35,20.37,3.89t12.57,12q1.33,8.74-6.87,16.64a35.68,35.68,0,0,1-19.8,9.67,17.62,17.62,0,0,1-4.91-.7,17.31,17.31,0,0,0-5.1-.66c-1.59.25-2.33.74-2.22,1.49q2.49,16.23,16.47,14.08a25.43,25.43,0,0,0,12.69-5.69,39.91,39.91,0,0,0,7.09-7.87q3-4.06,4.06-4.23Q283.59,129.38,284.2,133.32Zm-16.67-24a14.22,14.22,0,0,0-5.1-8.68A12.37,12.37,0,0,0,252,97.83q-7.36,1.14-10.89,8.89a22.4,22.4,0,0,0-2,12.86,8.57,8.57,0,0,0,4.45,6.32,13.68,13.68,0,0,0,9.16,1.41,17.22,17.22,0,0,0,11.76-6.85A14.38,14.38,0,0,0,267.53,109.32Z"/>
        <path class="cls-2" d="M308,142.52c.37,2.44-1.16,3.93-4.59,4.45q-8.1,1.25-11.82-24.31l-9.15-63.4a25.45,25.45,0,0,0-1.23-4.36A26.36,26.36,0,0,1,280,50.68a12.75,12.75,0,0,1,5.59-2.87,10.67,10.67,0,0,1,5.37.62c1.86.68,2.89,1.67,3.09,3a10.16,10.16,0,0,1-.36,3.81q-.68,3-.75,3.72-.73,9.93,1.9,27.13,4.25,27.78,3.92,26.82,3.2,17.26,6.93,25.64a6.11,6.11,0,0,0,1.12,1.78A5.28,5.28,0,0,1,308,142.52Z"/>
        <path class="cls-2" d="M373,119q.51,3.4-6.15,10.31T355.54,138a48,48,0,0,1-10.43,3.19q-13.44,2.06-21.76-4.33-7.65-5.64-9.27-16.23-1.66-10.89,2.35-25.24,5-17.82,16.22-19.55Q338,75,347.44,77.67t11.12,6.17a30.72,30.72,0,0,1,2.6,8.4q2.37,15.51-3.7,16.44a9.42,9.42,0,0,1-3.63-.31c-1.43-.36-2.21-.91-2.32-1.66a2.7,2.7,0,0,1,.51-1.6c.39-.68.64-1.13.73-1.34.31-1.29.12-4.15-.55-8.57Q349.8,79.55,340.6,81q-10.12,1.55-14.38,16.81a53.16,53.16,0,0,0-1.58,21.66q1.17,7.63,5.07,12.24,5.25,6,14.09,4.65,5.34-.81,11.86-6.18a32.42,32.42,0,0,0,8.33-9.57c.34-1,.88-2.46,1.6-4.32a3.36,3.36,0,0,1,2.42-1.39c.74-.11,1.73.39,3,1.51A5.82,5.82,0,0,1,373,119Z"/>
        <path class="cls-2" d="M438.51,95.55a33.93,33.93,0,0,1-3.75,22.23q-6.61,12.12-21.34,14.38-14.91,2.28-23.63-5.48-7.2-6.39-9.06-18.53a45.6,45.6,0,0,1,3.39-24.62q6.66-15.6,20.28-17.68,3.5-.54,10.41,1.58Q435.15,73.55,438.51,95.55Zm-8.85,1.21A40.68,40.68,0,0,0,424.05,81q-6.14-9.32-15.71-7.85-11,1.69-15.59,13.79a38,38,0,0,0-2,19.21q1.36,8.88,5.6,14.44,6.06,7.59,16.18,6,11.06-1.69,15.28-12.15A33.23,33.23,0,0,0,429.66,96.76Z"/>
        <path class="cls-2" d="M536.59,110a15.53,15.53,0,0,1-5.6,2.74,10.74,10.74,0,0,1-3.84-.43q-.35-2.27-1.16-7.63c-.51-3.3-.9-5.85-1.17-7.63q-6.68-43.54-18.29-41.76-6.9,1-9.92,15.37-2.33,11.48-1.19,18.94l2.16,14.11a9.54,9.54,0,0,0,1.32,3,9.29,9.29,0,0,1,1.29,2.91c.12.75-.45,1.61-1.68,2.56a7.59,7.59,0,0,1-3.32,1.67,5.93,5.93,0,0,1-3.95-1.2c-1.54-1-2.36-1.88-2.49-2.72L484.41,81.6a42.94,42.94,0,0,0-3.77-11.11q-3.93-8.35-7.6-7.79-2,.31-5.47,4.88-11.73,15.66-8.71,35.4a51.16,51.16,0,0,0,1.83,7,51.62,51.62,0,0,1,1.8,6.87c.43,2.82-.88,4.47-3.95,4.94a5.88,5.88,0,0,1-4.08-.82q-.84-.6-2.63-6.09a49.16,49.16,0,0,1-2-6.77l-5.09-33.28q-2.2-14.39,2.21-15.06a6.66,6.66,0,0,1,4,.76c1.43.7,2.21,1.51,2.36,2.45a37.4,37.4,0,0,1,.08,7.93c-.1,4.25-.14,6.9-.1,8l1,.56q2.58-6.58,5.14-13.19,3.78-8.52,10.59-9.56,9.57-1.47,19,13.26c1.06-1.32,2.23-3.9,3.53-7.76a33.2,33.2,0,0,1,3.8-8.37,12,12,0,0,1,8.13-4.71q5-.77,11.82,3.39Q528.93,60,532.61,84Z"/>
        <path class="cls-2" d="M597.43,85.37q1,6.21-9.15,12.8a44.41,44.41,0,0,1-17.71,7.33q-24.68,3.78-28.33-20.2-1.62-10.58,1.49-23.46,4.2-16.8,14.51-18.38,8.84-1.37,20.37,3.88t12.58,12q1.34,8.75-6.87,16.64a35.74,35.74,0,0,1-19.81,9.67A18,18,0,0,1,559.6,85a17,17,0,0,0-5.09-.67c-1.59.25-2.33.74-2.22,1.5q2.49,16.21,16.47,14.07a25.43,25.43,0,0,0,12.69-5.69,39.91,39.91,0,0,0,7.09-7.87q3-4.06,4.06-4.23Q596.83,81.43,597.43,85.37Zm-16.67-24a14.15,14.15,0,0,0-5.09-8.68,12.35,12.35,0,0,0-10.41-2.8Q557.9,51,554.37,58.77a22.49,22.49,0,0,0-2,12.86A8.55,8.55,0,0,0,556.84,78,13.68,13.68,0,0,0,566,79.36a17.22,17.22,0,0,0,11.76-6.85A14.34,14.34,0,0,0,580.76,61.37Z"/>
        <path class="cls-2" d="M678.35,41.81c-.9.72-3.16,1.54-6.78,2.48-4,1-6.27,1.68-6.84,2.06q0,1.57,2.21,15.68,1.68,11,2.64,14.75a21.1,21.1,0,0,0,1.67,4.8A21.88,21.88,0,0,1,673,86.65c.11.76-.39,1.6-1.5,2.54a6.59,6.59,0,0,1-3.14,1.64q-3.68.56-6.77-4.88a24.63,24.63,0,0,1-2.7-7.82q-3-19.87-4.49-29.33-1.18-.54-8.25,1.27-5.65,1.44-6.24-2.37-.81-5.36,14.16-7.22l-1.52-25.89a3.61,3.61,0,0,0-.67-1.27,3.46,3.46,0,0,1-.66-1.27c-.09-.56.32-1.18,1.22-1.84A6.49,6.49,0,0,1,655.81,9q6.51-.57,7.2,4a65.36,65.36,0,0,1,.33,10.77,65.81,65.81,0,0,0,.31,10.63,14.26,14.26,0,0,0,.86,3.19l10.06-2c3.44-.52,5.31.25,5.63,2.32A3.94,3.94,0,0,1,678.35,41.81Z"/>
        <path class="cls-2" d="M750.83,47.75A33.92,33.92,0,0,1,747.08,70q-6.63,12.12-21.35,14.38-14.91,2.28-23.63-5.48-7.19-6.39-9.05-18.53-1.83-12,3.39-24.62Q703.1,20.13,716.71,18q3.49-.52,10.42,1.58Q747.46,25.76,750.83,47.75ZM742,49a40.83,40.83,0,0,0-5.61-15.74q-6.14-9.31-15.71-7.84-11,1.68-15.59,13.78a37.75,37.75,0,0,0-2,19.21q1.36,8.88,5.6,14.44,6.06,7.59,16.18,6,11-1.69,15.28-12.15A33.3,33.3,0,0,0,742,49Z"/>
        <path class="cls-2" d="M268.6,182c-1.79,1.43-2.74,2.2-2.84,2.31a6.87,6.87,0,0,0-1.64,2.85q-2.82,8.65,2,45c4.53.08,6.92.87,7.15,2.38A5.32,5.32,0,0,1,272.1,238c-1.17.57-2.87,1.4-5.08,2.51a131.09,131.09,0,0,0,4.62,17.91,42.25,42.25,0,0,0,2.49,3.95,11.66,11.66,0,0,1,1.89,3.75,4.94,4.94,0,0,1-1.13,3.64,5.3,5.3,0,0,1-3.61,2.28q-5,.76-7.67-4.6-.3-.68-2.85-8.73a91.09,91.09,0,0,1-2.91-10.45,20.65,20.65,0,0,1-.19-4.87,211.83,211.83,0,0,0-26.59,6.51q-13,4-26,8.14l-2.94,3q1,5.31,1.85,10.78,2,8.17,5.3,10.11a2.48,2.48,0,0,1-2,2.18,13.18,13.18,0,0,0-3.58,1.2,12.65,12.65,0,0,1-3.13,1.12q-3.5.54-6-9.78-1.38-6.49-2.56-13l-1.5-1.2-.74.11a9.42,9.42,0,0,1-4.58-.38,3.15,3.15,0,0,1-2.44-2.44c-.12-.75.27-1.89,1.17-3.43s1.89-2.38,3-2.55l1-.15,1-.16.9-.28q-.76-6.19-3.6-24.74-3.76-24.55-.7-34.08a7,7,0,0,1,6-4.81,12.13,12.13,0,0,1,5.93.61c2,.71,3.1,1.81,3.33,3.32.09.56-.28,1.91-1.1,4.06-.9,2.55-1.38,4-1.45,4.41q-3,14.31,1.19,41.67c.65,4.23,2,6.19,4.11,5.86q.93-.13,9.57-2.9,19.51-5.88,26.16-6.89a35.2,35.2,0,0,0,5.51-1.64,40.5,40.5,0,0,1,7.64-2q3.78-.58,3-4.5l-2.27-12.36A132,132,0,0,1,251,195q-.14-19.31,7-20.41a9.22,9.22,0,0,1,7.08,1.94A9.54,9.54,0,0,1,268.6,182Z"/>
        <path class="cls-2" d="M345.45,252.29c.2,1.31-1.05,2.18-3.75,2.59q-4.43.68-5.77-2a36.44,36.44,0,0,1-1-5.47,4.09,4.09,0,0,0-.89-2.17,45.39,45.39,0,0,1-21.39,9.19,38.72,38.72,0,0,1-16.55-1.08q-9.44-2.59-10.34-8.52t8.76-12.89q8.79-6.54,16.89-7.78l18.22-2.78a3.56,3.56,0,0,0,.65-3.14q-1.44-9.44-4.21-13.93-4.53-7.53-14.29-6-7,1.08-11.85,8.75-4.38,7-3.52,12.66c0,.19.07.47.13.84s.09.62.11.71c.11.75-.32,1.2-1.3,1.35a7,7,0,0,1-4.31-1.07c-1.65-.9-2.53-1.78-2.66-2.62q-.62-3.94,1.6-10.42a30.06,30.06,0,0,1,5.42-10.14,17.53,17.53,0,0,1,10.83-5.56,38.59,38.59,0,0,1,20.1,2.12q10.23,4.06,11.6,11.79Zm-13.19-20.93q-.87-5.64-12.28-3.89a48.05,48.05,0,0,0-15.46,4.82q-8.17,4.43-7.22,10.63c.39,2.54,2.22,4.28,5.51,5.22a21.57,21.57,0,0,0,9.48.42,30.79,30.79,0,0,0,14.39-6.24Q333.16,237.28,332.26,231.36Z"/>
        <path class="cls-2" d="M387.19,190.33c.06.38.12,1.19.19,2.43q-2,3.19-4.17,3.52a3.26,3.26,0,0,1-2.8-1q-1.91-8.81-10.93-7.42-5.88.9-9,18.41-1.29,6.41.27,16.56,2,13,3.36,15.79c.16.27.56.81,1.19,1.62a4.85,4.85,0,0,1,1.05,1.94c.32,2.07-1.37,3.38-5.05,3.94q-6.25,1-7-4a7.13,7.13,0,0,1,.15-2.12,6.67,6.67,0,0,0,.14-2.11q-1.19-7.75-4.48-23.13t-4.48-23.13c-.29-1.88,0-3.1.76-3.65a13,13,0,0,1,4.87-1.39q4.6-.71,5.73,1.72.62,2.79,1.21,5.44c2.61-4.25,4.13-6.64,4.55-7.19a12.93,12.93,0,0,1,7.92-4.82,15.78,15.78,0,0,1,6.87.53q2,.57,5.73,3.6C385.72,187.91,387.05,189.39,387.19,190.33Z"/>
        <path class="cls-2" d="M461.94,234.46c.2,1.31-1.05,2.18-3.74,2.59q-4.43.67-5.77-2a36.76,36.76,0,0,1-1-5.48,4.09,4.09,0,0,0-.9-2.17,45.25,45.25,0,0,1-21.38,9.19,38.56,38.56,0,0,1-16.55-1.07q-9.44-2.6-10.35-8.52-.89-5.77,8.77-12.89,8.79-6.54,16.89-7.78l18.22-2.79a3.54,3.54,0,0,0,.65-3.13q-1.46-9.45-4.21-13.93-4.53-7.53-14.29-6-7,1.08-11.85,8.74c-2.93,4.68-4.1,8.91-3.52,12.66,0,.19.07.48.13.85s.09.61.1.71c.12.75-.32,1.2-1.3,1.35a6.94,6.94,0,0,1-4.3-1.07c-1.65-.91-2.54-1.78-2.67-2.63q-.6-3.95,1.61-10.42a30.26,30.26,0,0,1,5.42-10.14,17.57,17.57,0,0,1,10.83-5.55,38.59,38.59,0,0,1,20.1,2.12q10.23,4.06,11.6,11.79Zm-13.18-20.93q-.87-5.64-12.28-3.9A48.22,48.22,0,0,0,421,214.45q-8.17,4.43-7.22,10.63.58,3.81,5.5,5.22a21.61,21.61,0,0,0,9.49.43,30.7,30.7,0,0,0,14.39-6.25Q449.66,219.46,448.76,213.53Z"/>
        <path class="cls-2" d="M484.72,170.35A31.41,31.41,0,0,0,483.41,184q1.47,9.59,5,28.59t5,28.6a25,25,0,0,1-3.38,17.26q-5.75,9.26-17.15,11-6.07.93-18.3-1.39-13.54-2.4-14.15-6.34-.37-2.4,3.48-3a8.3,8.3,0,0,1,1.85-.14q9.68,6.75,22.13,4.84,19.07-2.93,15.15-28.48-.11-.7-10.59-61.84l1.27-1.49q5.54-2,6.27-2.12A7.22,7.22,0,0,1,484.72,170.35Zm-1.1-14.55c.2,1.32-.39,2.56-1.78,3.74a9.35,9.35,0,0,1-4.67,2.15q-2.76.44-8.69-3.86c-.05-.38-.15-1-.3-2-.43-2.82,1.19-4.51,4.88-5.07a12.38,12.38,0,0,1,6.9.82A5.45,5.45,0,0,1,483.62,155.8Z"/>
        <path class="cls-2" d="M547.84,163.14a105.67,105.67,0,0,1,.8,13.23,115,115,0,0,0,1.1,15.2c.26,1.7,1,4.88,2.13,9.56s1.89,8.06,2.2,10.13c.64,4.14.41,6.72-.69,7.76a7.26,7.26,0,0,1-3,1q-4.05.62-5.93-1.84-1.15-2.57-2.28-5-4.36,7.11-17,10.69-4.7,1.29-11.54-1.57c-4.15-1.68-7-3.57-8.58-5.64q-3.3-4.29-5.33-17.6L495,168.37q-1.75-4.08,5.61-5.2,5.15-.79,5.84,3.72,1,6.77,2.15,17.71,1.56,13.91,2.14,17.71a18.22,18.22,0,0,0,4.5,9.71q4.6,5.49,10.32,4.62,9.38-1.44,13.07-11.81a34.54,34.54,0,0,0,1.26-16.36L537,170a7.87,7.87,0,0,0-1.5-3,8.14,8.14,0,0,1-1.52-3.16,7.35,7.35,0,0,1,0-1.58,9.91,9.91,0,0,1,4.85-2.76Q547,157.65,547.84,163.14Z"/>
        <path class="cls-2" d="M629.64,210.23q-4.18,3.53-7,4-4.06.62-15.39-6.74-14.31-9.49-15.14-9.95a66.52,66.52,0,0,1-8.77-5.44,35.58,35.58,0,0,0-9.42-4.76l-2.8,3.89,2.13,14a8.38,8.38,0,0,0,1.84,3.4,8.38,8.38,0,0,1,1.84,3.4q.13.84-1.32,1.86a6.48,6.48,0,0,1-2.73,1.21q-7.36,1.14-8.29-4.93l-3-19.74a39.44,39.44,0,0,1-.28-5.52,39.18,39.18,0,0,0-.28-5.51l-6-38.92a80.79,80.79,0,0,0-2.85-13,13,13,0,0,0-1.33-3,13.77,13.77,0,0,1-1-3.17q-.23-1.41,2.42-3.25a11.87,11.87,0,0,1,4.84-2.19,9.79,9.79,0,0,1,3.71.23c1.37.32,2.11.86,2.22,1.6,0,.1-.14,1.28-.46,3.54q-.78,4,.9,15l5.48,41,1,.57q5.48-3.73,14.66-12.93,5.68-6.06,11.38-12.13,9.27-9.79,11.12-10.08a5.68,5.68,0,0,1,4.73,1.23,5.34,5.34,0,0,1,2.09,3.79l-.07.74q-6.5,4.59-18.78,15.86-14.1,13-13.59,16.37.2,1.26,6.52,5.49Q598,192.57,607.68,199q13.13,8,21.72,9.67Z"/>
        <path class="cls-2" d="M678.88,143.09a107.32,107.32,0,0,1,.8,13.22,111.64,111.64,0,0,0,1.1,15.2c.26,1.7,1,4.88,2.12,9.57s1.9,8,2.21,10.12c.64,4.14.4,6.72-.69,7.76a7.31,7.31,0,0,1-3,1c-2.7.41-4.67-.2-5.93-1.83q-1.14-2.56-2.27-5-4.38,7.11-17,10.69-4.7,1.29-11.54-1.57-6.23-2.52-8.59-5.64-3.3-4.28-5.33-17.6L626,148.32q-1.75-4.09,5.6-5.21,5.16-.8,5.85,3.72,1,6.76,2.14,17.71,1.56,13.91,2.15,17.71a18.07,18.07,0,0,0,4.5,9.71c3.07,3.66,6.51,5.21,10.31,4.62q9.39-1.43,13.07-11.81a34.66,34.66,0,0,0,1.27-16.36l-2.83-18.47a8.18,8.18,0,0,0-1.5-3,8.14,8.14,0,0,1-1.52-3.16,7.35,7.35,0,0,1,0-1.58,9.94,9.94,0,0,1,4.85-2.76Q678,137.59,678.88,143.09Z"/>
        <path class="cls-2" d="M711.32,97.85a23.88,23.88,0,0,0-2.18,4.23,169.16,169.16,0,0,0-2.38,46,17,17,0,0,1,0,3.11,18.2,18.2,0,0,0,.07,3.52q.25,1.69,4.59,10.27c-.44.45-1.21,1.15-2.32,2.09a18.31,18.31,0,0,1-2.74.56,11.71,11.71,0,0,1-4.13.05q-2.28-2.53-3.4-9.87l-.21-1.41-2.18-49.89a17.25,17.25,0,0,0-1.63-3.28c-1-1.82-1.63-2.81-1.78-3A16.83,16.83,0,0,1,702,96,14.52,14.52,0,0,1,711.32,97.85Zm7.14,84.78q1.49,9.74-12.68,11.9-2.58.41-10.15-1a8.06,8.06,0,0,1-2.18-4.43q-.65-4.23,2.26-6.12,2-1.47,7.56-2.31Q717.81,178.41,718.46,182.63Z"/>
        <g>
          <g>
            <path class="cls-2" d="M101.73,240.25A319.21,319.21,0,0,0,83,199.58c-6.2-11.21-13.09-24.71-25.22-30.48C47.61,164.29,33,165.62,27.87,177a13.19,13.19,0,0,0,2.36,14.68c4.72,5.29,8.92,10,12,16.49l4.28-7.47c-12.91-.3-29.54-2.84-39.91,6.83-8.78,8.19-8.73,23.38,0,31.58,9.92,9.33,24.69,7.1,37,6.35a235.1,235.1,0,0,1,53.26,2.8c4.51.76,8.77-4.6,4.83-8.29l-2.89-2.7c-4.66-4.36-11.69,2.64-7,7L94.64,247l4.83-8.3a251,251,0,0,0-41.23-3.59c-11.7,0-24.34,2.78-35.93.79-4.71-.81-9.44-3-11.45-7.56a12.56,12.56,0,0,1,1.8-12.86c7.33-8.28,24.14-5.07,33.82-4.85,4.05.1,5.81-4.21,4.29-7.46a58.67,58.67,0,0,0-7.4-11.89c-2.51-3.14-8.78-6.79-5.91-11.16,5.89-9,19-1.25,24,4.32C68.26,192,73.1,202,77.82,211a298.84,298.84,0,0,1,14.34,31.9c2.26,5.91,11.85,3.35,9.57-2.63Z"/>
            <path class="cls-2" d="M117.79,289.06c-12.48-7-15.19-29.64-33.15-27.61-6.23.7-12.32,5.21-13.42,11.61-1.46,8.5,6.08,11.18,10.12,16.94l3-7.28c-7.8,1.46-16.08,3.71-20.51,10.92-4,6.49-3.16,15.08,3.36,19.58,7.24,5,15.8,2.74,23.32-.25,9.92-4,19.8-8,29.7-12,5.84-2.36,3.29-12-2.64-9.57l-18.34,7.4c-5.86,2.36-11.83,5.4-18,6.94-4.43,1.1-12.62,0-9.23-6.51,2.66-5.13,9.9-6,15-7,3-.56,4.72-4.79,3-7.28a26.83,26.83,0,0,0-4.34-4.87C84.19,278.92,81,277.06,81,275s2.54-3.36,4.29-3.65c2.79-.46,5.24,1.1,7.26,2.89,7.94,7,10.49,17.93,20.21,23.37,5.58,3.12,10.59-5.44,5-8.56Z"/>
          </g>
          <path class="cls-2" d="M7.81,206.78a51.77,51.77,0,0,0,1.64,30c2.18,5.95,11.77,3.38,9.57-2.63a42.13,42.13,0,0,1-1.64-24.73c1.46-6.21-8.1-8.86-9.57-2.64Z"/>
          <path class="cls-2" d="M28,205.43l1.69,30.07c.35,6.35,10.28,6.39,9.92,0L38,205.43c-.36-6.35-10.28-6.39-9.92,0Z"/>
          <path class="cls-2" d="M41.47,174l6.31,58.72c.67,6.29,10.6,6.35,9.92,0L51.39,174c-.68-6.28-10.61-6.35-9.92,0Z"/>
          <path class="cls-2" d="M63.86,184.89a282.66,282.66,0,0,0,3.82,50.65c1,6.28,10.6,3.61,9.56-2.64a268.92,268.92,0,0,1-3.46-48c.11-6.39-9.82-6.39-9.92,0Z"/>
        </g>
        <g>
          <g>
            <path class="cls-2" d="M806.46,95.86A306.3,306.3,0,0,1,800.8,62c-1.18-10.93-2.71-22.7-1.21-33.66,1.06-7.78,7.13-20.82,17.29-18.15,6,1.58,3.08,7.9,2.54,12.4a62.46,62.46,0,0,0,.43,16.5c.44,3.06,4.87,4.64,7.29,3,5.49-3.81,10.88-7.88,16.64-11.29,5-2.95,11.31-5.86,17.06-3.28,4.67,2.1,8,7.44,7.52,12.61s-4.43,9.19-8.32,12.2c-9.32,7.21-20.56,12-30.33,18.6A258.38,258.38,0,0,0,798.19,96l8.3,4.83,1-4c1.49-6.21-8.08-8.86-9.57-2.64l-1,4a5,5,0,0,0,8.29,4.82,241.68,241.68,0,0,1,40-30.25c11.08-6.67,25.62-12.28,31.16-24.95a22.69,22.69,0,0,0-13.5-30.2c-15-4.94-29.35,8-40.72,15.87l7.29,3a49.87,49.87,0,0,1-.36-11.19c.3-3.57,1.48-7,1.67-10.62.32-5.9-3.42-10.76-8.65-13.08-10.66-4.73-22.47,2.33-27.87,11.61C787.31,25,789,40.25,790.07,53.3a328.15,328.15,0,0,0,6.82,45.19c1.39,6.23,11,3.6,9.57-2.63Z"/>
            <path class="cls-2" d="M819.55,154.52c2.75-5.36,3.52-11,3.54-16.94,0-5.54-.75-11.51,1.37-16.79,1.16-2.89,5.73-7.7,9.3-4.73,1.69,1.4.82,3.63.34,5.5a37.89,37.89,0,0,0-1.63,8.64c-.1,2.91,3.3,6,6.28,4.78,5.11-2.14,12.22-5.67,17.53-2.3,6.07,3.85-.22,9.27-4.58,10.79-5.83,2-12.26,2.79-18.3,4l-20.89,4.24c-6.25,1.27-3.61,10.83,2.64,9.57q15.66-3.18,31.33-6.36c8.12-1.65,17-4.06,20.81-12.23,3.25-7,.54-14.68-6-18.59-8.06-4.81-17.16-2.06-25.18,1.3l6.28,4.79c.24-7.24,5.18-14.34-1-20.69-4.23-4.32-11.14-4.86-16.53-2.69-6.83,2.75-10.16,9.71-11.22,16.63-1.29,8.5,1.43,18.17-2.62,26.07-2.91,5.67,5.65,10.7,8.56,5Z"/>
          </g>
          <path class="cls-2" d="M823.49,122.66l-1.56,20c-.25,3.11,3.38,5.77,6.27,4.78a56.1,56.1,0,0,1,19.85-3c6.39.18,6.38-9.74,0-9.92a64.31,64.31,0,0,0-22.48,3.38l6.28,4.79,1.56-20c.5-6.37-9.42-6.33-9.92,0Z"/>
          <path class="cls-2" d="M852.27,140.27c6.38,0,6.39-9.92,0-9.92s-6.4,9.92,0,9.92Z"/>
          <path class="cls-2" d="M829.76,119.17c6.38,0,6.39-9.93,0-9.93s-6.4,9.93,0,9.93Z"/>
        </g>
      </g>
    </g>
  </g>
</svg>
